<svg width="245" height="38" viewBox="0 0 245 38" fill="none" xmlns="http://www.w3.org/2000/svg">
<path d="M29.7402 37H22.1963V21.5947H8.06055V37H0.492188V1.30664H8.06055V15.2959H22.1963V1.30664H29.7402V37ZM71.1709 19.1045C71.1709 25.0127 69.7061 29.5537 66.7764 32.7275C63.8467 35.9014 59.6475 37.4883 54.1787 37.4883C48.71 37.4883 44.5107 35.9014 41.5811 32.7275C38.6514 29.5537 37.1865 24.9964 37.1865 19.0557C37.1865 13.1149 38.6514 8.58203 41.5811 5.45703C44.527 2.31576 48.7425 0.745117 54.2275 0.745117C59.7126 0.745117 63.9036 2.32389 66.8008 5.48145C69.7142 8.639 71.1709 13.18 71.1709 19.1045ZM45.1211 19.1045C45.1211 23.0921 45.8779 26.0951 47.3916 28.1133C48.9053 30.1315 51.1676 31.1406 54.1787 31.1406C60.2171 31.1406 63.2363 27.1286 63.2363 19.1045C63.2363 11.0641 60.2334 7.04395 54.2275 7.04395C51.2165 7.04395 48.946 8.0612 47.416 10.0957C45.8861 12.1139 45.1211 15.1169 45.1211 19.1045ZM107.621 1.30664V24.4023C107.621 27.0391 107.027 29.3503 105.839 31.3359C104.667 33.3216 102.966 34.8434 100.736 35.9014C98.5065 36.9593 95.8698 37.4883 92.8262 37.4883C88.2363 37.4883 84.6719 36.3164 82.1328 33.9727C79.5938 31.6126 78.3242 28.39 78.3242 24.3047V1.30664H85.8682V23.1572C85.8682 25.9079 86.4215 27.9261 87.5283 29.2119C88.6351 30.4977 90.4661 31.1406 93.0215 31.1406C95.4954 31.1406 97.2858 30.4977 98.3926 29.2119C99.5156 27.9098 100.077 25.8753 100.077 23.1084V1.30664H107.621ZM137.431 27.0879C137.431 30.3105 136.267 32.8496 133.939 34.7051C131.628 36.5605 128.406 37.4883 124.271 37.4883C120.463 37.4883 117.094 36.7721 114.164 35.3398V28.3086C116.573 29.3828 118.607 30.1396 120.268 30.5791C121.944 31.0186 123.474 31.2383 124.857 31.2383C126.518 31.2383 127.787 30.9209 128.666 30.2861C129.561 29.6514 130.009 28.7074 130.009 27.4541C130.009 26.7542 129.813 26.1357 129.423 25.5986C129.032 25.0452 128.454 24.5163 127.689 24.0117C126.941 23.5072 125.403 22.7015 123.075 21.5947C120.894 20.5693 119.258 19.5846 118.168 18.6406C117.077 17.6966 116.207 16.598 115.556 15.3447C114.905 14.0915 114.579 12.6266 114.579 10.9502C114.579 7.79264 115.645 5.31055 117.777 3.50391C119.926 1.69727 122.888 0.793945 126.664 0.793945C128.52 0.793945 130.285 1.01367 131.962 1.45312C133.655 1.89258 135.421 2.51107 137.26 3.30859L134.818 9.19238C132.914 8.41113 131.335 7.86589 130.082 7.55664C128.845 7.2474 127.624 7.09277 126.42 7.09277C124.988 7.09277 123.889 7.42643 123.124 8.09375C122.359 8.76107 121.977 9.63184 121.977 10.7061C121.977 11.3734 122.131 11.9593 122.44 12.4639C122.75 12.9521 123.238 13.4323 123.905 13.9043C124.589 14.36 126.192 15.1901 128.715 16.3945C132.051 17.9896 134.338 19.5928 135.575 21.2041C136.812 22.7992 137.431 24.7604 137.431 27.0879ZM157.67 37H150.102V7.60547H140.409V1.30664H167.362V7.60547H157.67V37ZM205.253 19.1045C205.253 25.0127 203.788 29.5537 200.858 32.7275C197.929 35.9014 193.729 37.4883 188.261 37.4883C182.792 37.4883 178.593 35.9014 175.663 32.7275C172.733 29.5537 171.269 24.9964 171.269 19.0557C171.269 13.1149 172.733 8.58203 175.663 5.45703C178.609 2.31576 182.825 0.745117 188.31 0.745117C193.795 0.745117 197.986 2.32389 200.883 5.48145C203.796 8.639 205.253 13.18 205.253 19.1045ZM179.203 19.1045C179.203 23.0921 179.96 26.0951 181.474 28.1133C182.987 30.1315 185.25 31.1406 188.261 31.1406C194.299 31.1406 197.318 27.1286 197.318 19.1045C197.318 11.0641 194.315 7.04395 188.31 7.04395C185.299 7.04395 183.028 8.0612 181.498 10.0957C179.968 12.1139 179.203 15.1169 179.203 19.1045ZM244.315 37H234.696L219.169 9.99805H218.949C219.258 14.7669 219.413 18.1686 219.413 20.2031V37H212.65V1.30664H222.196L237.699 28.04H237.87C237.626 23.4014 237.504 20.1217 237.504 18.2012V1.30664H244.315V37Z" fill="#001BFF"/>
</svg>
